<svg xmlns="http://www.w3.org/2000/svg" viewBox="0 0 410 404" fill="none">
  <defs>
    <linearGradient id="g" x1="6.666" x2="235.742" y1="33.058" y2="344.913" gradientUnits="userSpaceOnUse">
      <stop stop-color="#41D1FF"/>
      <stop offset="1" stop-color="#BD34FE"/>
    </linearGradient>
    <linearGradient id="g2" x1="209.55" x2="190.641" y1="-37.5" y2="286.79" gradientUnits="userSpaceOnUse">
      <stop stop-color="#FFEA83"/>
      <stop offset="0.083" stop-color="#FFDD35"/>
      <stop offset="1" stop-color="#FFA800"/>
    </linearGradient>
  </defs>
  <path fill="url(#g)" d="M399.641 59.525 215.4 388.545c-5.997 10.73-21.336 10.677-27.264-.098L10.47 59.6c-6.304-11.423 3.48-25.088 16.094-22.564l178.061 35.428a14.995 14.995 0 0 0 5.723-.004l173.127-34.98c12.574-2.538 22.398 10.93 16.15 22.36Z"/>
  <path fill="url(#g2)" d="m292.965 1.574-125.01 26.86a7.5 7.5 0 0 0-5.955 8.196l7.135 88.306c.437 5.405 5.847 8.786 10.975 6.782l34.409-13.627c5.133-2.006 10.71 1.483 10.805 6.986l1.714 98.906c.104 6.038 7.935 8.477 11.478 3.585l6.192-8.651a7.498 7.498 0 0 1 12.768 1.04l18.383 36.707c2.609 5.213 10.129 4.357 11.373-1.32l44.105-202.36c1.28-5.88-3.992-11.14-9.796-9.74l-38.923 9.26c-5.894 1.401-11.11-4.358-9.186-10.086l19.5-58.36c1.812-5.42-3.292-10.772-8.895-9.462Z"/>
</svg>
